<svg width="1280" height="520" viewBox="0 0 1280 520" fill="none" xmlns="http://www.w3.org/2000/svg">
  <rect width="1280" height="520" rx="32" fill="#07120C"/>
  <path d="M92 378C222 294 343 338 470 267C621 183 759 181 899 270C1014 343 1120 332 1188 288" stroke="#86EFAC" stroke-width="5" opacity="0.56"/>
  <path d="M92 430C253 362 344 403 501 342C659 281 760 290 908 350C1021 396 1116 380 1188 348" stroke="#22C55E" stroke-width="5" opacity="0.42"/>
  <g transform="translate(112 96)">
    <text x="0" y="0" fill="#F8FAFC" font-family="Inter, Segoe UI, Arial, sans-serif" font-size="52" font-weight="850">Agentic Income</text>
    <text x="2" y="44" fill="#BBF7D0" font-family="Inter, Segoe UI, Arial, sans-serif" font-size="21">Trust-led AI affiliate systems and reusable agent engines</text>
  </g>
  <g transform="translate(126 220)">
    <rect x="0" y="0" width="238" height="120" rx="20" fill="#052E16" stroke="#22C55E" stroke-opacity="0.55"/>
    <rect x="278" y="0" width="238" height="120" rx="20" fill="#082F49" stroke="#38BDF8" stroke-opacity="0.45"/>
    <rect x="556" y="0" width="238" height="120" rx="20" fill="#1E293B" stroke="#CBD5E1" stroke-opacity="0.34"/>
    <rect x="834" y="0" width="238" height="120" rx="20" fill="#14532D" stroke="#86EFAC" stroke-opacity="0.48"/>
    <text x="36" y="54" fill="#DCFCE7" font-family="Inter, Segoe UI, Arial, sans-serif" font-size="20" font-weight="800">Truthful Reviews</text>
    <text x="36" y="84" fill="#86EFAC" font-family="Inter, Segoe UI, Arial, sans-serif" font-size="15">recommendation integrity</text>
    <text x="314" y="54" fill="#E0F2FE" font-family="Inter, Segoe UI, Arial, sans-serif" font-size="20" font-weight="800">Agent Audits</text>
    <text x="314" y="84" fill="#7DD3FC" font-family="Inter, Segoe UI, Arial, sans-serif" font-size="15">catalog and claim checks</text>
    <text x="592" y="54" fill="#E2E8F0" font-family="Inter, Segoe UI, Arial, sans-serif" font-size="20" font-weight="800">Content Engine</text>
    <text x="592" y="84" fill="#CBD5E1" font-family="Inter, Segoe UI, Arial, sans-serif" font-size="15">comparison pages</text>
    <text x="870" y="54" fill="#DCFCE7" font-family="Inter, Segoe UI, Arial, sans-serif" font-size="20" font-weight="800">Recurring Links</text>
    <text x="870" y="84" fill="#86EFAC" font-family="Inter, Segoe UI, Arial, sans-serif" font-size="15">honest monetization</text>
  </g>
  <circle cx="1100" cy="126" r="58" fill="#22C55E" opacity="0.18"/>
  <circle cx="1140" cy="166" r="34" fill="#38BDF8" opacity="0.16"/>
</svg>
